# xmcd CD database file
#
# Track frame offsets:
#	150
#	13417
#	41870
#	82575
#	105335
#	113125
#	125775
#	146115
#	164000
#	192027
#	203480
#
# Disc length: 3146 seconds
#
# Revision: 11
# Processed by: cddbd v1.5.2PL0 Copyright (c) Steve Scherf et al.
# Submitted via: CDex 1.70beta3
#
DISCID=940c480b
DTITLE=Gabriela Robin - MACROSS PLUS ORIGINAL SOUND TRACK
DYEAR=1994
DGENRE=Soundtrack
TTITLE0=National anthem of MACROSS
TTITLE1=Fly up to the air ～ Tension
TTITLE2=山根麻衣／Gabriela Robin/After, in the dark ～ Torch song
TTITLE3=MYUNG Theme
TTITLE4=Bees and honey
TTITLE5=In captivity
TTITLE6=More than 3cm
TTITLE7=新居昭乃/VOICES
TTITLE8=Break out ～ Cantabile
TTITLE9=Very little wishes
TTITLE10=Gabriela Robin/SANTI-U
EXTD=YEAR: 1994
EXTT0=
EXTT1=
EXTT2=
EXTT3=
EXTT4=
EXTT5=
EXTT6=
EXTT7=
EXTT8=
EXTT9=
EXTT10=
PLAYORDER=
